<?xml version="1.0" encoding="iso-8859-1"?>
<!-- Generator: Adobe Illustrator 19.0.0, SVG Export Plug-In . SVG Version: 6.00 Build 0)  -->
<svg version="1.1" id="Layer_1" xmlns="http://www.w3.org/2000/svg" xmlns:xlink="http://www.w3.org/1999/xlink" x="0px" y="0px"
	 viewBox="0 0 512 512" style="enable-background:new 0 0 512 512;" xml:space="preserve">
<path style="fill:#F95428;" d="M503.919,255.999c0,136.927-111.002,247.915-247.915,247.915c-43.522,0-84.431-11.211-119.976-30.91
	C59.736,430.735,8.089,349.403,8.089,255.999c0-136.913,110.989-247.915,247.915-247.915c41.003,0,79.674,9.958,113.751,27.582
	C449.456,76.897,503.919,160.088,503.919,255.999z"/>
<path style="fill:#F98169;" d="M503.919,255.999c0,136.927-111.002,247.915-247.915,247.915c-43.522,0-84.431-11.211-119.976-30.91
	L369.755,35.665C449.456,76.897,503.919,160.088,503.919,255.999z"/>
<path style="fill:#35D8B9;" d="M502.942,188.275l-2.133-7.799l-15.597,4.265l2.132,7.799c5.632,20.598,8.488,41.948,8.488,63.46
	c0,132.243-107.588,239.831-239.831,239.831S16.169,388.243,16.169,256S123.757,16.169,256,16.169
	c71.096,0,138.245,31.623,183.599,85.542l-24.623,24.624h59.31V67.027l-23.22,23.22C402.67,33.345,331.422,0,256,0
	C114.841,0,0,114.841,0,256s114.841,256,256,256s256-114.841,256-256C512,233.048,508.953,210.263,502.942,188.275z"/>
<g>
	<path style="fill:#FFFFFF;" d="M244.676,203.113c0-34.734-28.258-62.993-62.993-62.993s-62.993,28.258-62.993,62.993
		c0,5.581,4.523,10.106,10.106,10.106c5.582,0,10.106-4.525,10.106-10.106c0-23.59,19.192-42.781,42.781-42.781
		s42.781,19.192,42.781,42.781c0,31.406-12.229,60.931-34.438,83.138l-68.377,68.377c-2.89,2.89-3.754,7.237-2.19,11.013
		c1.563,3.777,5.25,6.239,9.336,6.239H234.57c5.582,0,10.106-4.525,10.106-10.106c0-5.581-4.523-10.106-10.106-10.106h-81.377
		l51.126-51.126C230.343,274.518,244.676,239.917,244.676,203.113z"/>
	<path style="fill:#FFFFFF;" d="M396.679,282.275h-28.039V150.226c0-4.546-3.036-8.533-7.419-9.742
		c-4.386-1.209-9.033,0.658-11.364,4.561L264.969,287.2c-1.865,3.122-1.908,7.007-0.112,10.169c1.795,3.164,5.151,5.118,8.788,5.118
		h74.783v59.287c0,5.581,4.523,10.106,10.106,10.106s10.106-4.525,10.106-10.106v-59.287h28.039c5.582,0,10.106-4.525,10.106-10.106
		C406.784,286.8,402.26,282.275,396.679,282.275z M348.429,186.86v95.415h-56.978L348.429,186.86z"/>
</g>
<g>
	<path style="fill:#E6E6E6;" d="M256,67.492c5.582,0,10.106-4.525,10.106-10.106V44.212c0-5.581-4.523-10.106-10.106-10.106
		c-5.582,0-10.106,4.525-10.106,10.106v13.174C245.894,62.967,250.419,67.492,256,67.492z"/>
	<path style="fill:#E6E6E6;" d="M245.894,467.788c0,5.581,4.523,10.106,10.106,10.106c5.582,0,10.106-4.525,10.106-10.106v-13.174
		c0-5.581-4.523-10.106-10.106-10.106c-5.582,0-10.106,4.525-10.106,10.106V467.788z"/>
	<path style="fill:#E6E6E6;" d="M469.891,266.106c5.582,0,10.106-4.525,10.106-10.106c0-5.581-4.523-10.106-10.106-10.106h-15.277
		c-5.582,0-10.106,4.525-10.106,10.106c0,5.581,4.523,10.106,10.106,10.106H469.891z"/>
	<path style="fill:#E6E6E6;" d="M67.492,256c0-5.581-4.523-10.106-10.106-10.106H42.109c-5.582,0-10.106,4.525-10.106,10.106
		c0,5.581,4.523,10.106,10.106,10.106h15.277C62.967,266.106,67.492,261.581,67.492,256z"/>
	<circle style="fill:#E6E6E6;" cx="441.475" cy="148.919" r="10.106"/>
	<circle style="fill:#E6E6E6;" cx="363.081" cy="70.525" r="10.106"/>
	<circle style="fill:#E6E6E6;" cx="148.906" cy="70.525" r="10.106"/>
	<circle style="fill:#E6E6E6;" cx="70.511" cy="148.919" r="10.106"/>
	<circle style="fill:#E6E6E6;" cx="70.511" cy="363.094" r="10.106"/>
	<circle style="fill:#E6E6E6;" cx="148.906" cy="441.488" r="10.106"/>
	<circle style="fill:#E6E6E6;" cx="363.081" cy="441.475" r="10.106"/>
	<circle style="fill:#E6E6E6;" cx="441.475" cy="363.081" r="10.106"/>
</g>
<g>
</g>
<g>
</g>
<g>
</g>
<g>
</g>
<g>
</g>
<g>
</g>
<g>
</g>
<g>
</g>
<g>
</g>
<g>
</g>
<g>
</g>
<g>
</g>
<g>
</g>
<g>
</g>
<g>
</g>
</svg>
