<?xml version="1.0" encoding="iso-8859-1"?>
<!-- Generator: Adobe Illustrator 19.0.0, SVG Export Plug-In . SVG Version: 6.00 Build 0)  -->
<svg version="1.1" id="Layer_1" xmlns="http://www.w3.org/2000/svg" xmlns:xlink="http://www.w3.org/1999/xlink" x="0px" y="0px"
	 viewBox="0 0 512 512" style="enable-background:new 0 0 512 512;" xml:space="preserve">
<path style="fill:#35D8B9;" d="M265.978,38.473v71.862c0,15.992-12.955,28.947-28.947,28.947h-70.493l-61.3,37.294l-27.792,16.921
	l11.622-54.215H28.947c-3.977,0-7.764-0.798-11.193-2.251C7.311,132.662,0,122.362,0,110.335V38.473
	C0,22.493,12.943,9.526,28.947,9.526h208.084C253.023,9.526,265.978,22.493,265.978,38.473z"/>
<path style="fill:#70E5CF;" d="M265.978,38.473v71.862c0,15.992-12.955,28.947-28.947,28.947h-70.493l-61.3,37.294L194.51,9.526
	h42.522C253.023,9.526,265.978,22.493,265.978,38.473z"/>
<path style="fill:#F95428;" d="M512,193.712v71.85c0,15.98-12.967,28.947-28.947,28.947H362.191l11.622,54.215l-44.058-26.816
	l-45.022-27.399h-29.816c-15.992,0-28.947-12.967-28.947-28.947v-71.85c0-16.004,12.955-28.947,28.947-28.947h228.136
	C499.033,164.764,512,177.708,512,193.712z"/>
<path style="fill:#F98169;" d="M512,193.712v71.85c0,15.98-12.967,28.947-28.947,28.947H362.191l11.622,54.215l-44.058-26.816
	l83.972-157.144h69.326C499.033,164.764,512,177.708,512,193.712z"/>
<path style="fill:#35D8B9;" d="M265.978,347.45v71.862c0,15.992-12.955,28.947-28.947,28.947h-70.493l-89.092,54.215l11.622-54.215
	H28.947c-3.977,0-7.764-0.798-11.193-2.251C7.311,441.638,0,431.338,0,419.312V347.45c0-15.98,12.943-28.947,28.947-28.947h208.084
	C253.023,318.503,265.978,331.47,265.978,347.45z"/>
<path style="fill:#70E5CF;" d="M265.978,347.45v71.862c0,15.992-12.955,28.947-28.947,28.947h-70.493l-61.3,37.294l89.271-167.051
	h42.522C253.023,318.503,265.978,331.47,265.978,347.45z"/>
<g>
	<rect x="39.664" y="48.869" style="fill:#4D4D4D;" width="186.639" height="14.289"/>
	<rect x="155.512" y="85.658" style="fill:#4D4D4D;" width="70.79" height="14.289"/>
	<rect x="39.664" y="85.658" style="fill:#4D4D4D;" width="87.532" height="14.289"/>
	<rect x="39.664" y="394.639" style="fill:#4D4D4D;" width="133.281" height="14.289"/>
	<rect x="189.02" y="394.639" style="fill:#4D4D4D;" width="37.294" height="14.289"/>
	<rect x="39.664" y="357.845" style="fill:#4D4D4D;" width="57.668" height="14.289"/>
	<rect x="125.648" y="357.845" style="fill:#4D4D4D;" width="100.666" height="14.289"/>
	<rect x="324.754" y="204.083" style="fill:#4D4D4D;" width="155.31" height="14.289"/>
	<rect x="257.905" y="204.083" style="fill:#4D4D4D;" width="48.216" height="14.289"/>
	<rect x="419.645" y="240.877" style="fill:#4D4D4D;" width="60.418" height="14.289"/>
	<rect x="257.905" y="240.877" style="fill:#4D4D4D;" width="145.689" height="14.289"/>
</g>
<g>
</g>
<g>
</g>
<g>
</g>
<g>
</g>
<g>
</g>
<g>
</g>
<g>
</g>
<g>
</g>
<g>
</g>
<g>
</g>
<g>
</g>
<g>
</g>
<g>
</g>
<g>
</g>
<g>
</g>
</svg>
